<svg xmlns="http://www.w3.org/2000/svg" xmlns:xlink="http://www.w3.org/1999/xlink" width="500" zoomAndPan="magnify" viewBox="0 0 375 374.999991" height="500" preserveAspectRatio="xMidYMid meet" version="1.0"><defs><clipPath id="dd7e831d89"><path d="M 5.648438 5.648438 L 369.398438 5.648438 L 369.398438 369.398438 L 5.648438 369.398438 Z M 5.648438 5.648438 " clip-rule="nonzero"/></clipPath><clipPath id="78ed4fb68a"><path d="M 131 141 L 244 141 L 244 241.707031 L 131 241.707031 Z M 131 141 " clip-rule="nonzero"/></clipPath></defs><g clip-path="url(#dd7e831d89)"><path fill="#55de4e" d="M 128.960938 128.972656 L 128.960938 63.675781 C 128.960938 31.640625 154.929688 5.683594 186.957031 5.683594 C 187.226562 5.683594 187.484375 5.683594 187.753906 5.683594 C 203.210938 5.683594 218.015625 11.820312 228.949219 22.738281 C 239.867188 33.65625 246.003906 48.476562 246.003906 63.933594 L 246.003906 128.972656 L 311.054688 128.972656 C 326.5 128.972656 341.320312 135.109375 352.238281 146.039062 C 363.167969 156.960938 369.304688 171.777344 369.304688 187.222656 C 369.304688 187.410156 369.304688 187.589844 369.304688 187.765625 C 369.304688 203.222656 363.167969 218.039062 352.238281 228.960938 C 341.320312 239.878906 326.5 246.015625 311.054688 246.015625 L 246.003906 246.015625 L 246.003906 311.066406 C 246.003906 326.523438 239.867188 341.328125 228.949219 352.261719 C 218.015625 363.179688 203.210938 369.316406 187.753906 369.316406 C 187.578125 369.316406 187.386719 369.316406 187.210938 369.316406 C 171.753906 369.316406 156.949219 363.179688 146.015625 352.261719 C 135.097656 341.328125 128.960938 326.523438 128.960938 311.066406 L 128.960938 246.015625 L 63.652344 246.015625 C 31.628906 246.015625 5.660156 220.058594 5.660156 188.023438 C 5.660156 187.765625 5.660156 187.492188 5.660156 187.222656 C 5.660156 171.777344 11.796875 156.960938 22.730469 146.039062 C 33.648438 135.109375 48.46875 128.972656 63.910156 128.972656 Z M 128.960938 128.972656 " fill-opacity="1" fill-rule="evenodd"/></g><g clip-path="url(#78ed4fb68a)"><path fill="#ffffff" d="M 243.089844 166.078125 C 236.789062 133.648438 197.273438 133.105469 187.527344 163.421875 C 177.785156 133.109375 138.265625 133.648438 131.964844 166.078125 C 126.246094 195.496094 187.527344 241.914062 187.527344 241.914062 C 187.527344 241.914062 248.8125 195.496094 243.089844 166.078125 Z M 243.089844 166.078125 " fill-opacity="1" fill-rule="nonzero"/></g></svg>
