<svg xmlns="http://www.w3.org/2000/svg" xmlns:xlink="http://www.w3.org/1999/xlink" width="500" zoomAndPan="magnify" viewBox="0 0 375 374.999991" height="500" preserveAspectRatio="xMidYMid meet" version="1.0"><defs><clipPath id="a85b06bc5b"><path d="M 55.964844 55.964844 L 319 55.964844 L 319 319.214844 L 55.964844 319.214844 Z M 55.964844 55.964844 " clip-rule="nonzero"/></clipPath><clipPath id="aee2deb0d8"><path d="M 147 154 L 228 154 L 228 226.796875 L 147 226.796875 Z M 147 154 " clip-rule="nonzero"/></clipPath></defs><g clip-path="url(#a85b06bc5b)"><path fill="#55de4e" d="M 145.15625 145.164062 L 145.15625 97.9375 C 145.15625 74.761719 163.941406 55.988281 187.105469 55.988281 C 187.300781 55.988281 187.484375 55.988281 187.683594 55.988281 C 198.863281 55.988281 209.570312 60.425781 217.480469 68.324219 C 225.375 76.222656 229.816406 86.941406 229.816406 98.121094 L 229.816406 145.164062 L 276.867188 145.164062 C 288.039062 145.164062 298.757812 149.601562 306.65625 157.511719 C 314.5625 165.40625 319 176.128906 319 187.296875 C 319 187.433594 319 187.5625 319 187.6875 C 319 198.871094 314.5625 209.589844 306.65625 217.484375 C 298.757812 225.382812 288.039062 229.824219 276.867188 229.824219 L 229.816406 229.824219 L 229.816406 276.875 C 229.816406 288.054688 225.375 298.765625 217.480469 306.671875 C 209.570312 314.570312 198.863281 319.007812 187.683594 319.007812 C 187.554688 319.007812 187.417969 319.007812 187.289062 319.007812 C 176.109375 319.007812 165.402344 314.570312 157.492188 306.671875 C 149.597656 298.765625 145.15625 288.054688 145.15625 276.875 L 145.15625 229.824219 L 97.917969 229.824219 C 74.753906 229.824219 55.972656 211.046875 55.972656 187.875 C 55.972656 187.6875 55.972656 187.492188 55.972656 187.296875 C 55.972656 176.128906 60.410156 165.40625 68.316406 157.511719 C 76.214844 149.601562 86.933594 145.164062 98.105469 145.164062 Z M 145.15625 145.164062 " fill-opacity="1" fill-rule="evenodd"/></g><g clip-path="url(#aee2deb0d8)"><path fill="#ffffff" d="M 227.707031 172.007812 C 223.148438 148.550781 194.566406 148.160156 187.519531 170.085938 C 180.472656 148.160156 151.890625 148.550781 147.328125 172.007812 C 143.191406 193.285156 187.519531 226.859375 187.519531 226.859375 C 187.519531 226.859375 231.84375 193.285156 227.707031 172.007812 Z M 227.707031 172.007812 " fill-opacity="1" fill-rule="nonzero"/></g></svg>